<svg width="500" height="102" viewBox="0 0 500 102" fill="none" xmlns="http://www.w3.org/2000/svg">
<path d="M344.84 60.6092C339.773 60.6092 336.073 64.2428 336.073 69.2517C336.073 74.2606 339.757 77.8942 344.84 77.8942C349.922 77.8942 353.715 74.2606 353.715 69.2517C353.715 64.2428 349.988 60.6092 344.84 60.6092Z" fill="black" fill-opacity="0.33"/>
<path d="M253.503 14.5433C235.252 14.5433 223.003 27.3262 223.003 46.3558C223.003 65.3852 235.441 77.9075 254.682 77.9075C268.545 77.9075 280.729 69.8875 283.184 56.9453H268.835C267.164 62.8953 262.174 66.3262 253.966 66.3262C244.07 66.3262 237.648 59.3484 237.547 49.5262H283.307C286.268 30.1854 273.475 14.109 253.488 14.5433H253.503ZM237.727 40.167C237.727 40.0078 237.743 39.805 237.765 39.6097C237.779 39.5589 237.779 39.5011 237.785 39.4503C237.785 39.4287 237.785 39.3852 237.801 39.3635C237.822 39.1897 237.85 39.0305 237.888 38.8568C237.924 38.7193 237.959 38.5601 237.995 38.4081C238.017 38.2343 238.069 38.0606 238.104 37.9014C238.257 37.2716 238.452 36.6347 238.69 36.0266C238.799 35.7299 238.922 35.4403 239.039 35.1726C239.146 34.9265 239.263 34.702 239.386 34.4632C242.014 29.295 247.262 26.0089 253.604 26.0089C261.045 26.0089 266.425 29.6425 268.668 35.9109C268.69 35.976 268.72 36.0483 268.741 36.1352C268.791 36.2727 268.843 36.4174 268.878 36.5695C268.893 36.584 268.9 36.6058 268.9 36.6347C268.966 36.8084 269.009 36.9966 269.059 37.1702C269.212 37.7059 269.335 38.285 269.428 38.8206C269.551 39.378 269.617 39.8774 269.625 40.1741H237.713L237.727 40.167Z" fill="black" fill-opacity="0.33"/>
<path d="M295.36 15.2452V77.1835H309.318V27.6299H336.581V15.2452H295.352H295.36Z" fill="black" fill-opacity="0.33"/>
<path d="M484.603 15.2456L468.567 60.0942L452.076 15.2456H437.424L461.067 76.4383L458.787 82.1565C456.905 87.0931 455.783 87.9617 451.251 87.9617H441.782V100.173H455.964C465.064 100.173 467.858 95.533 471.651 85.7033L499.262 15.2383H484.595L484.611 15.2528L484.603 15.2456Z" fill="black" fill-opacity="0.33"/>
<path d="M405.868 14.5145C396.159 14.5145 388.978 20.269 386.002 26.6386H383.57L381.601 15.2238H369.735V100.165H383.57V67.1297H386.371C390.794 73.6371 397.086 77.3938 405.86 77.3938C421.894 77.3938 433.804 63.916 433.558 45.9578C433.558 27.4349 421.541 14.5217 405.86 14.5217L405.868 14.5145ZM401.414 65.4504C391.164 65.4504 383.57 57.7128 383.57 46.1894C383.57 34.6659 391.157 26.4504 401.414 26.4504C411.673 26.4504 419.245 34.2822 419.245 45.9504C419.245 57.6187 411.659 65.4504 401.414 65.4504Z" fill="black" fill-opacity="0.33"/>
<path d="M186.66 14.5145C176.953 14.5145 169.771 20.269 166.796 26.6386H164.363L162.394 15.2238H150.529V100.165H164.363V67.1297H167.165C171.589 73.6371 177.879 77.3938 186.653 77.3938C202.681 77.3938 214.597 63.916 214.35 45.9578C214.35 27.4349 202.333 14.5217 186.653 14.5217L186.66 14.5145ZM182.209 65.4504C171.958 65.4504 164.363 57.7128 164.363 46.1894C164.363 34.6659 171.95 26.4504 182.209 26.4504C192.466 26.4504 200.039 34.2822 200.039 45.9504C200.039 57.6187 192.452 65.4504 182.209 65.4504Z" fill="black" fill-opacity="0.33"/>
<path d="M94.1193 15.2448H63.1495L53.0217 5.11841C50.3287 2.42577 46.7017 0.927429 42.8938 0.927429H15.1382V15.2448H42.9011L53.029 25.3712C55.722 28.0639 59.3488 29.5622 63.1567 29.5622H90.9195V77.183H105.239V26.3628C105.239 20.2248 100.266 15.2448 94.1193 15.2448Z" fill="black" fill-opacity="0.33"/>
<path d="M15.1393 15.245H0.819885V80.3754C0.819885 86.5134 5.7933 91.4935 11.9395 91.4935H90.9206V77.176H15.1393V15.245Z" fill="black" fill-opacity="0.33"/>
</svg>
